# Blender v2.79 (sub 0) OBJ File: 'StarSparrowCollision.blend'
# www.blender.org
mtllib StarSparrow4Collision.mtl
o CollisionMesh_Cube.001
v -0.600188 -0.095667 0.408808
v -0.600188 0.108959 0.408808
v -1.126182 -0.185332 -0.296281
v -1.126182 0.198624 -0.296281
v 0.600188 -0.095667 0.408808
v 0.600188 0.108959 0.408808
v 1.126182 -0.185332 -0.296281
v 1.126182 0.198624 -0.296281
v -0.067693 -0.079073 2.050548
v -0.067693 0.092365 2.050548
v 0.067693 0.092365 2.050548
v 0.067693 -0.079073 2.050548
v -0.639761 -0.149061 0.865103
v -0.639761 0.162353 0.865103
v 0.639761 -0.149061 0.865103
v 0.639761 0.162353 0.865103
v -0.216833 -0.128629 1.470215
v 0.216833 -0.128629 1.470215
v -0.216833 0.141921 1.470215
v 0.216833 0.141921 1.470215
v -1.126182 0.198624 -0.663113
v -1.126182 -0.185332 -0.663113
v 1.126182 -0.185332 -0.663113
v 1.126182 0.198624 -0.663113
v -1.126182 0.198624 -0.296281
v -1.126182 -0.185332 -0.296281
v 1.126182 0.198624 -0.296281
v 1.126182 -0.185332 -0.296281
v -1.126182 0.198624 -0.663113
v -1.126182 -0.185332 -0.663113
v 1.126182 0.198624 -0.663113
v 1.126182 -0.185332 -0.663113
v -1.873353 0.198624 -0.296281
v -1.873353 -0.185332 -0.296281
v 1.873353 0.198624 -0.296281
v 1.873353 -0.185332 -0.296281
v -1.873353 0.198624 -0.663113
v -1.873353 -0.185332 -0.663113
v 1.873353 0.198624 -0.663113
v 1.873353 -0.185332 -0.663113
v 0.375394 -0.185332 -0.296281
v -0.375394 -0.185332 -0.296281
v -0.375394 0.198624 -0.296281
v 0.375394 0.198624 -0.296281
v -0.200063 -0.095667 0.408808
v 0.200063 -0.095667 0.408808
v 0.200063 0.108959 0.408808
v -0.200063 0.108959 0.408808
v -0.022564 -0.079073 2.050548
v 0.022564 -0.079073 2.050548
v 0.022564 0.092365 2.050548
v -0.022564 0.092365 2.050548
v -0.213254 0.162353 0.865103
v 0.213254 0.162353 0.865103
v 0.213254 -0.149061 0.865103
v -0.213254 -0.149061 0.865103
v -0.072278 0.141921 1.470215
v 0.072278 0.141921 1.470215
v 0.072278 -0.128629 1.470215
v -0.072278 -0.128629 1.470215
v 0.375394 -0.185332 -0.663113
v -0.375394 -0.185332 -0.663113
v -0.375394 0.198624 -0.663113
v 0.375394 0.198624 -0.663113
v 0.227621 -0.208289 -1.223822
v -0.227621 -0.208289 -1.223822
v -0.227621 0.221581 -1.223822
v 0.227621 0.221581 -1.223822
v -1.493415 -0.170704 -0.080984
v -1.493415 0.170704 -0.080984
v -1.493415 -0.170704 -0.894490
v -1.493415 0.170704 -0.894490
v -1.152006 -0.170704 -0.080984
v -1.152006 0.170704 -0.080984
v -1.152006 -0.170704 -0.894490
v -1.152006 0.170704 -0.894490
v 1.152005 -0.170704 -0.080984
v 1.152005 0.170704 -0.080984
v 1.152005 -0.170704 -0.894490
v 1.152005 0.170704 -0.894490
v 1.493414 -0.170704 -0.080984
v 1.493414 0.170704 -0.080984
v 1.493414 -0.170704 -0.894490
v 1.493414 0.170704 -0.894490
vn -0.8015 0.0000 0.5979
vn 0.0000 1.0000 0.0000
vn 0.8015 0.0000 0.5979
vn -0.9685 0.0000 0.2489
vn 0.0000 -0.9920 0.1262
vn 0.0000 0.9920 0.1262
vn 0.0000 0.0000 1.0000
vn 0.0000 -0.9964 0.0851
vn 0.0000 0.9964 0.0851
vn 0.9685 0.0000 0.2489
vn 0.9963 0.0000 -0.0864
vn 0.0000 0.9932 -0.1162
vn 0.0000 -0.9932 -0.1162
vn -0.9963 0.0000 -0.0864
vn 0.8196 0.0000 0.5729
vn 0.0000 0.9994 0.0337
vn 0.0000 -0.9994 0.0337
vn -0.8196 0.0000 0.5729
vn 0.0000 0.0000 -1.0000
vn 0.0000 -1.0000 0.0000
vn -1.0000 0.0000 0.0000
vn 1.0000 0.0000 0.0000
vn -0.9670 0.0000 -0.2548
vn 0.9670 0.0000 -0.2548
vn 0.0000 0.9992 0.0409
vn 0.0000 -0.9992 0.0409
usemtl None
s off
f 1//1 2//1 4//1 3//1
f 44//2 8//2 24//2 64//2
f 7//3 8//3 6//3 5//3
f 19//4 17//4 9//4 10//4
f 41//5 7//5 5//5 46//5
f 43//6 4//6 2//6 48//6
f 49//7 52//7 10//7 9//7
f 59//8 18//8 12//8 50//8
f 57//9 19//9 10//9 52//9
f 18//10 20//10 11//10 12//10
f 5//11 6//11 16//11 15//11
f 48//12 2//12 14//12 53//12
f 46//13 5//13 15//13 55//13
f 2//14 1//14 13//14 14//14
f 15//15 16//15 20//15 18//15
f 53//16 14//16 19//16 57//16
f 55//17 15//17 18//17 59//17
f 14//18 13//18 17//18 19//18
f 61//19 64//19 24//19 23//19
f 3//7 4//7 25//7 26//7
f 24//7 8//7 27//7 31//7
f 42//20 3//20 22//20 62//20
f 25//2 29//2 37//2 33//2
f 28//20 32//20 40//20 36//20
f 21//7 22//7 30//7 29//7
f 7//7 23//7 32//7 28//7
f 4//7 21//7 29//7 25//7
f 8//7 7//7 28//7 27//7
f 23//7 24//7 31//7 32//7
f 22//7 3//7 26//7 30//7
f 34//21 33//21 37//21 38//21
f 35//22 36//22 40//22 39//22
f 32//19 31//19 39//19 40//19
f 27//7 28//7 36//7 35//7
f 30//20 26//20 34//20 38//20
f 31//2 27//2 35//2 39//2
f 29//19 30//19 38//19 37//19
f 26//7 25//7 33//7 34//7
f 7//20 41//20 61//20 23//20
f 41//20 42//20 62//20 61//20
f 22//19 21//19 63//19 62//19
f 62//23 63//23 67//23 66//23
f 13//17 56//17 60//17 17//17
f 56//17 55//17 59//17 60//17
f 16//16 54//16 58//16 20//16
f 54//16 53//16 57//16 58//16
f 1//13 45//13 56//13 13//13
f 45//13 46//13 55//13 56//13
f 6//12 47//12 54//12 16//12
f 47//12 48//12 53//12 54//12
f 20//9 58//9 51//9 11//9
f 58//9 57//9 52//9 51//9
f 17//8 60//8 49//8 9//8
f 60//8 59//8 50//8 49//8
f 12//7 11//7 51//7 50//7
f 50//7 51//7 52//7 49//7
f 8//6 44//6 47//6 6//6
f 44//6 43//6 48//6 47//6
f 3//5 42//5 45//5 1//5
f 42//5 41//5 46//5 45//5
f 4//2 43//2 63//2 21//2
f 43//2 44//2 64//2 63//2
f 66//19 67//19 68//19 65//19
f 64//24 61//24 65//24 68//24
f 63//25 64//25 68//25 67//25
f 61//26 62//26 66//26 65//26
f 69//21 70//21 72//21 71//21
f 71//19 72//19 76//19 75//19
f 75//22 76//22 74//22 73//22
f 73//7 74//7 70//7 69//7
f 71//20 75//20 73//20 69//20
f 76//2 72//2 70//2 74//2
f 77//21 78//21 80//21 79//21
f 79//19 80//19 84//19 83//19
f 83//22 84//22 82//22 81//22
f 81//7 82//7 78//7 77//7
f 79//20 83//20 81//20 77//20
f 84//2 80//2 78//2 82//2
